<svg id="Capa_1" enable-background="new 0 0 512 512" height="512" viewBox="0 0 512 512" width="512" xmlns="http://www.w3.org/2000/svg"><g><g><path d="m401.488 32.631-15.163-21.096c-5.191-7.223-13.6-11.535-22.495-11.535h-217.133c-9.364 0-18.023 4.674-23.161 12.503l-13.228 20.157c-13.258 2.06-23.438 13.548-23.438 27.37v293.97c0 4.143 3.357 7.5 7.5 7.5s7.5-3.357 7.5-7.5v-293.97c0-7.003 5.701-12.7 12.71-12.7h282.84c7.009 0 12.71 5.697 12.71 12.7v31.76c0 4.143 3.357 7.5 7.5 7.5s7.5-3.357 7.5-7.5v-31.76c0-13.893-10.285-25.426-23.642-27.399zm-254.791-17.631h217.133c4.078 0 7.935 1.978 10.315 5.289l8.655 12.041h-254.333l7.61-11.597c2.356-3.589 6.326-5.733 10.62-5.733z"/><path d="m417.63 119.29c-4.143 0-7.5 3.357-7.5 7.5v325.18c0 7.003-5.702 12.7-12.71 12.7h-282.84c-7.008 0-12.71-5.697-12.71-12.7v-62.97c0-4.143-3.357-7.5-7.5-7.5s-7.5 3.357-7.5 7.5v62.97c0 12.675 8.563 23.38 20.207 26.66v25.87c0 4.143 3.357 7.5 7.5 7.5h32.325c4.143 0 7.5-3.357 7.5-7.5v-24.83h203.195v24.83c0 4.143 3.357 7.5 7.5 7.5h32.325c4.143 0 7.5-3.357 7.5-7.5v-25.87c11.644-3.28 20.207-13.985 20.207-26.66v-325.18c.001-4.143-3.357-7.5-7.499-7.5zm-278.228 377.71h-17.325v-17.325h17.325zm250.521 0h-17.325v-17.325h17.325z"/><path d="m159.024 150.361h129.301c4.143 0 7.5-3.357 7.5-7.5s-3.357-7.5-7.5-7.5h-129.301c-4.143 0-7.5 3.357-7.5 7.5s3.358 7.5 7.5 7.5z"/><path d="m159.024 215.012h129.301c4.143 0 7.5-3.357 7.5-7.5s-3.357-7.5-7.5-7.5h-129.301c-4.143 0-7.5 3.357-7.5 7.5s3.358 7.5 7.5 7.5z"/><path d="m159.024 279.663h129.301c4.143 0 7.5-3.357 7.5-7.5s-3.357-7.5-7.5-7.5h-129.301c-4.143 0-7.5 3.357-7.5 7.5s3.358 7.5 7.5 7.5z"/><path d="m126.7 242c-4.143 0-7.5 3.357-7.5 7.5v93.37c0 4.143 3.357 7.5 7.5 7.5h193.95c4.143 0 7.5-3.357 7.5-7.5v-270.72c0-4.143-3.357-7.5-7.5-7.5h-193.95c-4.143 0-7.5 3.357-7.5 7.5v142.35c0 4.143 3.357 7.5 7.5 7.5s7.5-3.357 7.5-7.5v-134.85h178.95v255.72h-178.95v-85.87c0-4.143-3.357-7.5-7.5-7.5z"/><path d="m119.199 439.85c0 4.143 3.357 7.5 7.5 7.5h193.951c4.143 0 7.5-3.357 7.5-7.5v-64.65c0-4.143-3.357-7.5-7.5-7.5h-193.951c-4.143 0-7.5 3.357-7.5 7.5zm15-57.151h178.951v49.65h-178.951z"/><path d="m352.976 233.195h32.325c4.143 0 7.5-3.357 7.5-7.5v-96.975c0-4.143-3.357-7.5-7.5-7.5h-32.325c-4.143 0-7.5 3.357-7.5 7.5v96.976c0 4.142 3.357 7.499 7.5 7.499zm7.5-96.975h17.325v81.976h-17.325z"/><path d="m345.476 290.346c0 4.143 3.357 7.5 7.5 7.5h32.325c4.143 0 7.5-3.357 7.5-7.5v-32.325c0-4.143-3.357-7.5-7.5-7.5h-32.325c-4.143 0-7.5 3.357-7.5 7.5zm15-24.825h17.325v17.325h-17.325z"/><path d="m345.476 439.85c0 4.143 3.357 7.5 7.5 7.5s7.5-3.357 7.5-7.5v-16.163c0-4.143-3.357-7.5-7.5-7.5s-7.5 3.357-7.5 7.5z"/><path d="m385.301 416.187c-4.143 0-7.5 3.357-7.5 7.5v16.163c0 4.143 3.357 7.5 7.5 7.5s7.5-3.357 7.5-7.5v-16.163c0-4.143-3.358-7.5-7.5-7.5z"/></g></g></svg>